# xmcd
#
# Track frame offsets:
#	183
#	16008
#	26820
#	43928
#	57643
#	68608
#	85310
#	101655
#	115065
#	126800
#	139550
#	151380
#	166885
#	179273
#	192383
#	206168
#	217380
#
# Disc length: 3069 seconds
#
# Revision: 3
# Processed by: cddbd v1.5.2PL0 Copyright (c) Steve Scherf et al.
# Submitted via: audiograbber 1.83.01
#
DISCID=f80bfb11
DTITLE=Marvin Gaye - The Marvin Gaye Collection  - 20 Top 20's [CD4]
DYEAR=1900
DGENRE=
TTITLE0=I've Grown Accustomed To Her Face
TTITLE1=Straighten Up and Fly Right
TTITLE2=Too Young
TTITLE3=Mona Lisa
TTITLE4=It's Only a Paper Moon
TTITLE5=What Kind of Fool Am I
TTITLE6=The Days of Wine and Roses
TTITLE7=Mack the Knife
TTITLE8=Hello Young Lovers
TTITLE9=Happy Days Are Here Again
TTITLE10=Why Did I Choose You
TTITLE11=She Needs Me
TTITLE12=Funny
TTITLE13=This Will Make You Laugh
TTITLE14=The Shadow of Your Smile
TTITLE15=I Wish I Didn't Love You So
TTITLE16=I Won't Cry Anymore
EXTD=
EXTT0=
EXTT1=
EXTT2=
EXTT3=
EXTT4=
EXTT5=
EXTT6=
EXTT7=
EXTT8=
EXTT9=
EXTT10=
EXTT11=
EXTT12=
EXTT13=
EXTT14=
EXTT15=
EXTT16=
PLAYORDER=
